<svg xmlns="http://www.w3.org/2000/svg" id="view_equipped_items_icon" class="reward_btn_icon" viewBox="0 0 64 64">
	<defs><style>.cls-1{fill:#ffffff;}</style></defs>
	<g id="Layer_2" data-name="Layer 2">
		<g id="Layer_1-2" data-name="Layer 1">
			<circle class="cls-1" cx="32.52" cy="20.57" r="12.83" transform="translate(8.46 50.6) rotate(-83.62)"/>
			<path class="cls-1" d="M52.6,0H11.4A11.41,11.41,0,0,0,0,11.4V52.6A11.41,11.41,0,0,0,11.4,64H52.6A11.41,11.41,0,0,0,64,52.6V11.4A11.41,11.41,0,0,0,52.6,0Zm7.47,52.6a7.4,7.4,0,0,1-1.28,4.18A54.53,54.53,0,0,0,54.3,43.57C51,37.36,43.1,36.4,42.13,36.3H22.44c-1,.1-8.89,1.06-12.16,7.27A54.74,54.74,0,0,0,5.67,57.38,7.4,7.4,0,0,1,3.93,52.6V11.4A7.48,7.48,0,0,1,11.4,3.93H52.6a7.48,7.48,0,0,1,7.47,7.47Z"/>
		</g>
	</g>
</svg>